<mxfile host="app.diagrams.net" modified="2022-06-27T03:35:03.847Z" agent="5.0 (Windows)" etag="W6lista5KdDm7HMH5cBZ" version="20.0.1" type="github">
  <diagram id="k-enZLzroodC74N6Bcm2" name="第 1 页">
    <mxGraphModel dx="1422" dy="714" grid="1" gridSize="10" guides="1" tooltips="1" connect="1" arrows="1" fold="1" page="1" pageScale="1" pageWidth="827" pageHeight="1169" math="0" shadow="0">
      <root>
        <mxCell id="0" />
        <mxCell id="1" parent="0" />
      </root>
    </mxGraphModel>
  </diagram>
</mxfile>
